# xmcd
#
# Track frame offsets:
#	150
#	15173
#	35734
#	56407
#	79110
#	111690
#	129060
#	143734
#	160941
#	178384
#	203044
#
# Disc length: 3008 seconds
#
# Revision: 1
# Processed by: cddbd v1.5.2PL0 Copyright (c) Steve Scherf et al.
# Submitted via: audiograbber 1.83.01
#
DISCID=900bbe0b
DTITLE=Wiser Time - There And Back Again
DYEAR=2004
DGENRE=Blues
TTITLE0=Rock n Roll
TTITLE1=Crumbling Down
TTITLE2=10 Years
TTITLE3=Millington Station 
TTITLE4=Revolution
TTITLE5=Give You My Lovin
TTITLE6=Back For More
TTITLE7=Had Enough
TTITLE8=Better Of Dead
TTITLE9=Divided
TTITLE10=What You Give
EXTD=
EXTT0=
EXTT1=
EXTT2=
EXTT3=
EXTT4=
EXTT5=
EXTT6=
EXTT7=
EXTT8=
EXTT9=
EXTT10=
PLAYORDER=
